#format: frame checksums
#version: 2
#hash: MD5
#software: Lavf62.3.100
#tb 0: 1/4
#media_type 0: video
#codec_id 0: rawvideo
#dimensions 0: 180x320
#sar 0: 1/1
#stream#, dts,        pts, duration,     size, hash
0,          0,          0,        1,    86400, 45f1160c21ea51708f1854b1cc1e9bc4
0,          1,          1,        1,    86400, d6b3d4e40e02ac5abaf2597aaec3dac4
0,          2,          2,        1,    86400, 8feb333706d149a26f1ac3558c20e011
0,          3,          3,        1,    86400, c072eca9dc770d4e284b3b10b9519139
0,          4,          4,        1,    86400, 313800c39ac654f24378c20cd3c662cc
0,          5,          5,        1,    86400, ccbdd62d73a6254b867964dff278091f
0,          6,          6,        1,    86400, 8c77bb8516f33ea304c816588f088976
0,          7,          7,        1,    86400, 5167ede51a63a4a649b74e97bc7c6202
